<?xml version="1.0" encoding="utf-8"?>
<!-- Generator: Adobe Illustrator 28.0.0, SVG Export Plug-In . SVG Version: 6.00 Build 0)  -->
<svg version="1.1" id="Warstwa_1" xmlns="http://www.w3.org/2000/svg" xmlns:xlink="http://www.w3.org/1999/xlink" x="0px" y="0px"
	 viewBox="0 0 841.9 595.3" style="enable-background:new 0 0 841.9 595.3;" xml:space="preserve">
<style type="text/css">
	.st0{fill:#3CA936;}
	.st1{fill:#010101;}
</style>
<g>
	<path class="st0" d="M671.1,211.1c9.7,0,19.5,0,29.5,0c10.5,33.6,21,67.1,31.6,100.8c6.9,0,13.6,0,20.7,0c0-26.9,0-53.8,0-80.8
		c-6.4-1-13.1,0.1-19.6-0.3c0-6.9,0-13.3,0-19.5c7.1-1,61.1-0.4,62.7,0.7c0,6.1,0,12.2,0,18.8c-6.7,0-13.2,0-20.1,0
		c0,27.4,0,54.3,0,81.3c6.6,0,12.9,0,19.1,0c0.7,0.6,1.2,1.1,1.8,1.7c-0.4,5.8,0,11.8-0.1,18.1c-27.4,0-54.7,0-82.5,0
		c-1.3-0.8-1.3-2.9-1.8-4.6c-2.1-7.4-4.2-14.7-6.4-22.4c-13.8-0.7-27.7,0.5-41.8-0.1c-1.1,3.7-2.3,7.2-3.3,10.8
		c-1.4,4.9-2.8,9.9-4.1,14.9c-0.3,1.1-0.9,1.7-2,1.7c-7.1,0-14.2,0-21.2,0C633.3,329.7,669.2,213.9,671.1,211.1z M700.2,284.6
		c-5-17.5-9.5-34.4-15.1-51.1c-1,2.3-1.8,4.5-2.4,6.7c-3.9,13.6-7.9,27.1-11.8,40.7c-0.3,1.1-0.5,2.3,0.1,3.7
		C680.6,284.3,690.1,284.6,700.2,284.6z"/>
	<path class="st1" d="M288.9,267.9c-8.3,0-16.2,0-24.4,0c0,21.3,0,42.5,0,63.9c-7.6,0.8-15,0.1-22.5,0.3c0-28,0-55.6,0-83.5
		c38.6,0,77,0,115.8,0c0,27.5,0,55.1,0,83.1c-7.2,0.8-14.5,0.1-22.1,0.4c0-21.5,0-42.8,0-64.2c-8.2,0-16.2,0-24.4,0
		c0,21.3,0,42.4,0,63.9c-7.6,0.9-14.9,0.1-22.5,0.4C288.9,310.6,288.9,289.4,288.9,267.9z"/>
	<path class="st1" d="M452.8,331.8c-16,0-32,0-48.4,0c0,12.7,0,24.9,0,37.4c-7.5,0-14.7,0-22.2,0c0-40.1,0-80.3,0-120.6
		c23.6,0,47,0,70.6,0C452.8,276.4,452.8,303.9,452.8,331.8z M404.6,267.9c0,14.9,0,29.6,0,44.5c9,0.2,17.7,0.2,26.5-0.2
		c0-14.9,0-29.6,0-44.4C422.2,268,413.4,267.5,404.6,267.9z"/>
	<path class="st1" d="M116.6,331.9c-23.9,0-47.8,0-71.7,0c0-40.3,0-80.5,0-120.8c24,0,47.7,0,71.7,0c0,7.8,0,15.4,0,23.2
		c-0.7,0.6-1.6,0.7-2.7,0.7c-14,0-27.9,0-41.9,0.1c-0.9,0-1.9,0-3.1,0c0,24.4,0,48.5,0,72.8c15.8,0,31.6,0,47.7,0
		C116.6,315.9,116.6,323.7,116.6,331.9z"/>
	<path class="st1" d="M197.3,258.1c0-3.1,0-6.1,0-9.5c6.8,0,13.5,0,20.4,0c0,27.6,0,55.3,0,83.4c-6.8,0.5-13.4,0-20.2,0.2
		c-0.5-3.7,0-7.2,0.1-10.6c-0.8-0.2-1.1,0.4-1.4,0.8c-7.3,9.9-17.6,12.6-29.1,12.3c-19.5-0.6-33.2-14.6-36.9-32.6
		c-2.4-11.9-1.7-23.5,3.9-34.5c8.3-16.3,26.4-24.5,43.4-21.2C185.3,248,192.3,251.2,197.3,258.1z M196.5,289.9
		c0-2.2-0.2-4.5-0.7-6.6c-2-8.5-6.9-14.5-15.4-16.9c-8.8-2.4-16.9-0.7-22.8,6.4c-7.4,8.8-8,19.1-3.3,29.4
		c6.8,14.9,25.5,15.9,35.1,6.4C194.5,303.5,196.5,297.1,196.5,289.9z"/>
	<path class="st1" d="M546.6,332c-23.3,0-46.3,0-69.6,0c0-27.9-0.3-55.7,0.2-83.6c7.5,0,14.7,0,22.2,0c0.2,21.2-0.3,42.5,0.3,64
		c8.3,0.4,16.4,0.2,24.9-0.1c0-21.3,0-42.5,0-63.8c7.6,0,14.7,0,22.1,0C546.6,276.2,546.6,303.9,546.6,332z"/>
	<path class="st1" d="M619.7,265c-4.8,2.6-9.3,6.1-14.8,8c-2-2.7-3.6-5.6-6.5-7.2c-3.4-1.9-6.9-3.1-10.7-1.6c-2.6,1.1-4.4,3-4.6,5.9
		c-0.2,2.8,1.5,4.8,3.9,6.1c6.3,3.3,12.6,6.4,18.8,9.8c7,3.8,12.4,8.9,14.2,17.1c2.4,11-2,25.1-17.4,29.6
		c-9.9,2.9-19.7,3.1-29.2-1.4c-7.4-3.5-12.1-9.5-14.3-17.9c5.6-2.9,10.5-6.8,16.6-8.5c2.2,5.3,5.1,9.1,10.2,10.9
		c3.4,1.2,6.6,0.7,9.7-1c3.3-1.9,3.9-7.2,1.5-10.1c-1.6-1.9-3.7-3-5.8-4.1c-5.8-2.9-11.8-5.6-17.4-9c-9.4-5.7-12.2-15-10.6-24.9
		c1.9-11.6,10-17.5,20.7-20.1c12.3-3,27.4,1.7,34.8,14.2C619.4,261.9,620.4,262.9,619.7,265z"/>
</g>
</svg>