<?xml version="1.0" encoding="utf-8"?>
<!-- Generator: Adobe Illustrator 28.0.0, SVG Export Plug-In . SVG Version: 6.00 Build 0)  -->
<svg version="1.1" id="Warstwa_1" xmlns="http://www.w3.org/2000/svg" xmlns:xlink="http://www.w3.org/1999/xlink" x="0px" y="0px"
	 viewBox="0 0 841.9 595.3" style="enable-background:new 0 0 841.9 595.3;" xml:space="preserve">
<style type="text/css">
	.st0{fill:#39A935;}
	.st1{fill:#1D1D1B;}
</style>
<g>
	<path class="st0" d="M211.9,237h51.7v14.6h-34.9v25.3H261v14.4h-32.4v34h-16.7V237z"/>
	<path class="st0" d="M274.3,255v-16.4h17.3V255H274.3z M274.6,325.3v-61h16.5v61H274.6z"/>
	<path class="st0" d="M319.7,325.3l-19.1-61h17.3l12.7,46.6h0.5l12.6-46.6h17.2l-18.9,61H319.7z"/>
	<path class="st0" d="M398.3,327.2c-19.3,0-32.7-13.6-32.7-32.4c0-18.9,13.5-32.4,32.5-32.4c17.9,0,29.9,13.5,29.9,32.4
		c0,1.6-0.1,3.6-0.5,5.2h-44.8c1.8,8,7.3,12.6,15.8,12.6c6.8,0,11.3-2.1,15.3-7.2l9.5,10C417,323.5,408.6,327.2,398.3,327.2z
		 M382.6,289.5h29.2c-1.2-7.6-6.5-12.7-14.1-12.7C389.7,276.8,384.3,281.6,382.6,289.5z"/>
</g>
<g>
	<path class="st1" d="M91.3,274v51.3H31.7V237h51.2V274H91.3z M48.3,274h18.9v-22.7H48.3V274z M74.8,287.6H48.3v23.1h26.5V287.6z"/>
	<path class="st1" d="M105,255v-16.4h17.3V255H105z M105.4,325.3v-61h16.5v61H105.4z"/>
	<path class="st1" d="M163,262.5c9.2,0,16.6,3.9,20.1,9.9h0.5c-0.1-1.2-0.2-2.5-0.2-5.2v-2.8h15.1v88h-45.3V338h28.9v-16.5
		c0-2.8,0.1-4,0.4-5.3H182c-2.7,5.1-9.6,8.7-18.2,8.7c-16.9,0-29.8-12.8-29.8-31.2C134,275.3,146.2,262.5,163,262.5z M150.6,293.6
		c0,10,6.8,16.8,16.1,16.8s16.1-6.9,16.1-16.8c0-10-6.8-16.8-16.1-16.8S150.6,283.6,150.6,293.6z"/>
</g>
<g>
	<path class="st1" d="M480.5,268.2V237h13.9c3.4,0,6,0.8,7.8,2.5c1.8,1.7,2.7,3.9,2.7,6.8c0,2.9-0.9,5.1-2.7,6.8
		c-1.8,1.7-4.4,2.5-7.8,2.5h-8.1v12.6H480.5z M486.2,251.1h7.5c1.9,0,3.3-0.4,4.3-1.3c0.9-0.8,1.4-2,1.4-3.6c0-1.5-0.5-2.7-1.4-3.6
		c-0.9-0.8-2.4-1.3-4.3-1.3h-7.5V251.1z"/>
	<path class="st1" d="M519.3,268.6c-3.8,0-6.7-1-8.8-3.1c-2.1-2.1-3.2-4.9-3.2-8.5c0-2.3,0.5-4.4,1.4-6.1c0.9-1.7,2.2-3.1,3.8-4.1
		c1.6-1,3.6-1.5,5.7-1.5c2.2,0,4,0.5,5.4,1.4c1.4,0.9,2.5,2.2,3.3,3.9c0.8,1.7,1.1,3.6,1.1,5.8v1.5h-16.3v-2.9h12.4l-0.8,0.6
		c0-2.1-0.4-3.6-1.3-4.7c-0.9-1.1-2.1-1.6-3.8-1.6c-1.8,0-3.2,0.6-4.2,1.9c-1,1.3-1.5,3.1-1.5,5.4v0.6c0,2.4,0.6,4.2,1.8,5.4
		c1.2,1.2,2.9,1.8,5.1,1.8c1.3,0,2.5-0.2,3.6-0.5c1.1-0.3,2.2-0.9,3.2-1.7l1.6,3.7c-1.1,0.9-2.3,1.5-3.8,2
		C522.5,268.4,520.9,268.6,519.3,268.6z"/>
	<path class="st1" d="M532.7,268.2v-16.7c0-0.9,0-1.9-0.1-2.9c0-1-0.1-1.9-0.2-2.8h5.4l0.6,6.1h-0.9c0.3-1.5,0.8-2.7,1.5-3.7
		c0.7-1,1.5-1.7,2.5-2.2c1-0.5,2.1-0.7,3.3-0.7c0.5,0,1,0,1.3,0.1c0.3,0,0.6,0.1,1,0.2l0,4.9c-0.6-0.2-1-0.4-1.4-0.4
		c-0.4-0.1-0.9-0.1-1.5-0.1c-1.3,0-2.3,0.3-3.2,0.8c-0.9,0.5-1.5,1.3-1.9,2.2c-0.4,0.9-0.6,2-0.6,3.2v11.9H532.7z"/>
	<path class="st1" d="M557.9,268.6c-1.9,0-3.7-0.2-5.3-0.7c-1.6-0.5-3-1.1-4.1-1.9l1.6-3.7c1.1,0.8,2.4,1.4,3.7,1.8
		c1.4,0.4,2.7,0.6,4.1,0.6c1.5,0,2.6-0.3,3.3-0.8c0.7-0.5,1.1-1.2,1.1-2c0-0.7-0.2-1.2-0.7-1.6c-0.5-0.4-1.2-0.7-2.2-0.9l-4.4-0.8
		c-1.9-0.4-3.3-1.1-4.3-2.1c-1-1-1.5-2.3-1.5-3.9c0-1.4,0.4-2.6,1.1-3.7c0.8-1.1,1.8-1.9,3.2-2.5c1.4-0.6,3-0.9,4.9-0.9
		c1.7,0,3.2,0.2,4.7,0.7c1.5,0.4,2.7,1.1,3.7,2l-1.6,3.6c-0.9-0.7-2-1.3-3.1-1.7c-1.2-0.4-2.3-0.6-3.5-0.6c-1.5,0-2.7,0.3-3.4,0.8
		c-0.7,0.5-1.1,1.2-1.1,2.1c0,0.6,0.2,1.2,0.6,1.6c0.4,0.4,1.1,0.7,2,1l4.4,0.8c2,0.4,3.5,1.1,4.5,2c1,1,1.5,2.3,1.5,3.9
		c0,1.5-0.4,2.7-1.2,3.8c-0.8,1.1-1.9,1.9-3.3,2.4C561.5,268.4,559.8,268.6,557.9,268.6z"/>
	<path class="st1" d="M582.2,268.6c-2.3,0-4.3-0.5-6-1.4c-1.7-0.9-3-2.3-3.9-4c-0.9-1.7-1.4-3.8-1.4-6.2c0-2.4,0.5-4.5,1.4-6.2
		c0.9-1.7,2.2-3.1,3.9-4c1.7-0.9,3.7-1.4,6-1.4s4.3,0.5,6,1.4c1.7,0.9,3,2.3,3.9,4c0.9,1.7,1.4,3.8,1.4,6.2c0,2.4-0.5,4.5-1.4,6.2
		c-0.9,1.7-2.2,3.1-3.9,4C586.5,268.2,584.5,268.6,582.2,268.6z M582.2,264.4c1.7,0,3.1-0.6,4.2-1.8c1-1.2,1.6-3.1,1.6-5.6
		c0-2.5-0.5-4.3-1.6-5.5c-1-1.2-2.4-1.8-4.2-1.8s-3.1,0.6-4.2,1.8c-1,1.2-1.6,3.1-1.6,5.5c0,2.5,0.5,4.3,1.6,5.6
		C579.1,263.8,580.5,264.4,582.2,264.4z"/>
	<path class="st1" d="M598.3,268.2v-16.8c0-0.9,0-1.8-0.1-2.8c-0.1-0.9-0.1-1.9-0.3-2.8h5.4l0.4,4.4h-0.5c0.7-1.6,1.8-2.8,3.1-3.6
		c1.4-0.8,3-1.3,4.8-1.3c2.6,0,4.6,0.7,5.9,2.2c1.3,1.5,2,3.8,2,6.9v13.7h-5.5v-13.4c0-1.8-0.3-3.1-1-3.9c-0.7-0.8-1.7-1.2-3.1-1.2
		c-1.7,0-3.1,0.5-4.1,1.6c-1,1.1-1.5,2.5-1.5,4.3v12.6H598.3z"/>
	<path class="st1" d="M633.7,268.6c-1.9,0-3.7-0.5-5.1-1.4c-1.5-0.9-2.6-2.3-3.5-4c-0.8-1.7-1.2-3.8-1.2-6.2c0-2.4,0.4-4.5,1.2-6.2
		c0.8-1.7,2-3.1,3.5-4c1.5-0.9,3.2-1.4,5.1-1.4c1.9,0,3.6,0.5,5,1.4c1.4,0.9,2.4,2.2,2.9,3.7H641l0.5-4.7h5.3
		c-0.1,0.9-0.2,1.8-0.2,2.8c-0.1,0.9-0.1,1.9-0.1,2.8v16.8H641l0-4.6h0.5c-0.5,1.5-1.4,2.8-2.9,3.7
		C637.2,268.2,635.5,268.6,633.7,268.6z M635.2,264.4c1.7,0,3.1-0.6,4.2-1.8c1.1-1.2,1.6-3.1,1.6-5.6c0-2.5-0.5-4.3-1.6-5.5
		c-1.1-1.2-2.5-1.8-4.2-1.8c-1.7,0-3.1,0.6-4.2,1.8c-1.1,1.2-1.6,3.1-1.6,5.5c0,2.5,0.5,4.3,1.6,5.6
		C632.1,263.8,633.5,264.4,635.2,264.4z"/>
	<path class="st1" d="M652.5,268.2v-32.6h5.5v32.6H652.5z"/>
	<path class="st1" d="M663.8,241.6v-5.4h6.2v5.4H663.8z M664.1,268.2v-22.4h5.5v22.4H664.1z"/>
	<path class="st1" d="M685.2,268.6c-2.7,0-4.7-0.7-6-2.1c-1.4-1.4-2-3.5-2-6.2V250h-4.3v-4.2h4.3v-5.7l5.5-1.4v7.1h6v4.2h-6v10
		c0,1.5,0.3,2.6,0.9,3.2c0.6,0.6,1.4,0.9,2.4,0.9c0.6,0,1,0,1.4-0.1c0.4-0.1,0.8-0.2,1.2-0.4v4.4c-0.5,0.2-1.1,0.4-1.7,0.5
		C686.4,268.6,685.8,268.6,685.2,268.6z"/>
	<path class="st1" d="M692.3,278.2l-1.3-4.4c1.4-0.3,2.6-0.6,3.5-1c0.9-0.4,1.7-0.9,2.3-1.5c0.6-0.6,1.1-1.4,1.6-2.4l1.1-2.6
		l-0.1,2.2l-9.7-22.7h5.9l7,17.5h-1.3l7-17.5h5.6l-10.2,23.6c-0.7,1.6-1.4,2.9-2.2,4c-0.8,1-1.7,1.9-2.6,2.5c-0.9,0.6-1.9,1.1-3,1.5
		C694.8,277.8,693.6,278,692.3,278.2z"/>
	<path class="st1" d="M736.8,268.2v-26.5h-10.3V237h26.4v4.7h-10.3v26.5H736.8z"/>
	<path class="st1" d="M763.7,268.6c-3.8,0-6.7-1-8.8-3.1c-2.1-2.1-3.2-4.9-3.2-8.5c0-2.3,0.5-4.4,1.4-6.1c0.9-1.7,2.2-3.1,3.8-4.1
		c1.6-1,3.6-1.5,5.7-1.5c2.2,0,4,0.5,5.4,1.4c1.4,0.9,2.5,2.2,3.3,3.9c0.8,1.7,1.1,3.6,1.1,5.8v1.5h-16.3v-2.9h12.4l-0.8,0.6
		c0-2.1-0.4-3.6-1.3-4.7c-0.9-1.1-2.1-1.6-3.8-1.6c-1.8,0-3.2,0.6-4.2,1.9c-1,1.3-1.5,3.1-1.5,5.4v0.6c0,2.4,0.6,4.2,1.8,5.4
		c1.2,1.2,2.9,1.8,5.1,1.8c1.3,0,2.5-0.2,3.6-0.5c1.1-0.3,2.2-0.9,3.2-1.7l1.6,3.7c-1.1,0.9-2.3,1.5-3.8,2
		C767,268.4,765.4,268.6,763.7,268.6z"/>
	<path class="st1" d="M785.2,268.6c-1.9,0-3.7-0.2-5.3-0.7c-1.6-0.5-3-1.1-4.1-1.9l1.6-3.7c1.1,0.8,2.4,1.4,3.7,1.8
		c1.4,0.4,2.7,0.6,4.1,0.6c1.5,0,2.6-0.3,3.3-0.8c0.7-0.5,1.1-1.2,1.1-2c0-0.7-0.2-1.2-0.7-1.6c-0.5-0.4-1.2-0.7-2.2-0.9l-4.4-0.8
		c-1.9-0.4-3.3-1.1-4.3-2.1c-1-1-1.5-2.3-1.5-3.9c0-1.4,0.4-2.6,1.1-3.7c0.8-1.1,1.8-1.9,3.2-2.5c1.4-0.6,3-0.9,4.9-0.9
		c1.7,0,3.2,0.2,4.7,0.7c1.5,0.4,2.7,1.1,3.7,2l-1.6,3.6c-0.9-0.7-2-1.3-3.1-1.7c-1.2-0.4-2.3-0.6-3.5-0.6c-1.5,0-2.7,0.3-3.4,0.8
		c-0.7,0.5-1.1,1.2-1.1,2.1c0,0.6,0.2,1.2,0.6,1.6c0.4,0.4,1.1,0.7,2,1l4.4,0.8c2,0.4,3.5,1.1,4.5,2c1,1,1.5,2.3,1.5,3.9
		c0,1.5-0.4,2.7-1.2,3.8c-0.8,1.1-1.9,1.9-3.3,2.4C788.7,268.4,787.1,268.6,785.2,268.6z"/>
	<path class="st1" d="M808.7,268.6c-2.7,0-4.7-0.7-6-2.1c-1.4-1.4-2-3.5-2-6.2V250h-4.3v-4.2h4.3v-5.7l5.5-1.4v7.1h6v4.2h-6v10
		c0,1.5,0.3,2.6,0.9,3.2c0.6,0.6,1.4,0.9,2.4,0.9c0.6,0,1,0,1.4-0.1c0.4-0.1,0.8-0.2,1.2-0.4v4.4c-0.5,0.2-1.1,0.4-1.7,0.5
		C809.9,268.6,809.3,268.6,808.7,268.6z"/>
</g>
<g>
	<path class="st1" d="M481.6,325.3v-18.2h-4.3v-4.2h5.8l-1.6,1.4v-3.4c0-2.8,0.7-4.9,2.1-6.3c1.4-1.4,3.5-2.1,6.3-2.1
		c0.6,0,1.3,0,2.1,0.1c0.7,0.1,1.4,0.3,1.9,0.5v4.3c-0.4-0.1-0.8-0.3-1.4-0.4c-0.5-0.1-1-0.1-1.6-0.1c-0.8,0-1.5,0.1-2.1,0.4
		c-0.6,0.3-1.1,0.7-1.4,1.4c-0.3,0.6-0.5,1.4-0.5,2.4v2.7l-0.8-1h6.7v4.2h-5.8v18.2H481.6z"/>
	<path class="st1" d="M505.9,325.7c-2.3,0-4.3-0.5-6-1.4c-1.7-0.9-3-2.3-3.9-4c-0.9-1.7-1.4-3.8-1.4-6.2c0-2.4,0.5-4.5,1.4-6.2
		c0.9-1.7,2.2-3.1,3.9-4c1.7-0.9,3.7-1.4,6-1.4s4.3,0.5,6,1.4c1.7,0.9,3,2.3,3.9,4c0.9,1.7,1.4,3.8,1.4,6.2c0,2.4-0.5,4.5-1.4,6.2
		c-0.9,1.7-2.2,3.1-3.9,4C510.2,325.3,508.2,325.7,505.9,325.7z M505.9,321.5c1.7,0,3.1-0.6,4.2-1.8c1-1.2,1.6-3.1,1.6-5.6
		c0-2.5-0.5-4.3-1.6-5.5c-1-1.2-2.4-1.8-4.2-1.8c-1.7,0-3.1,0.6-4.2,1.8c-1,1.2-1.6,3.1-1.6,5.5c0,2.5,0.5,4.3,1.6,5.6
		C502.8,320.9,504.2,321.5,505.9,321.5z"/>
	<path class="st1" d="M522,325.3v-16.7c0-0.9,0-1.9-0.1-2.9c0-1-0.1-1.9-0.2-2.8h5.4l0.6,6.1h-0.9c0.3-1.5,0.8-2.7,1.5-3.7
		c0.7-1,1.5-1.7,2.5-2.2c1-0.5,2.1-0.7,3.3-0.7c0.5,0,1,0,1.3,0.1c0.3,0,0.6,0.1,1,0.2l0,4.9c-0.6-0.2-1-0.4-1.4-0.4
		c-0.4-0.1-0.9-0.1-1.5-0.1c-1.3,0-2.3,0.3-3.2,0.8c-0.9,0.5-1.5,1.3-1.9,2.2c-0.4,0.9-0.6,2-0.6,3.2v11.9H522z"/>
	<path class="st1" d="M548.6,325.3l14.1-31.2h4.8l14.3,31.2H576l-3.8-8.8l2.3,1.6h-18.7l2.4-1.6l-3.8,8.8H548.6z M565,300.2
		l-6.2,14.8l-1.2-1.4h14.9l-0.9,1.4l-6.4-14.8H565z"/>
	<path class="st1" d="M585.2,325.3v-31.2h5.7v31.2H585.2z"/>
	<path class="st1" d="M624.5,325.7c-3.2,0-6-0.7-8.3-2c-2.3-1.3-4.1-3.2-5.3-5.6c-1.2-2.4-1.9-5.2-1.9-8.5c0-3.3,0.6-6.1,1.9-8.5
		s3-4.2,5.3-5.6c2.3-1.3,5.1-2,8.3-2c2.2,0,4.2,0.3,5.9,0.9c1.8,0.6,3.3,1.5,4.5,2.7l-1.9,4.5c-1.4-1.1-2.7-1.9-4-2.4
		c-1.3-0.5-2.8-0.7-4.4-0.7c-3.2,0-5.6,1-7.2,2.9c-1.7,1.9-2.5,4.6-2.5,8.1c0,3.5,0.8,6.2,2.5,8.1c1.7,1.9,4.1,2.9,7.2,2.9
		c1.7,0,3.1-0.2,4.4-0.7c1.3-0.5,2.6-1.3,4-2.5l1.9,4.5c-1.3,1.2-2.8,2.1-4.5,2.7C628.6,325.4,626.7,325.7,624.5,325.7z"/>
	<path class="st1" d="M639.8,325.3v-16.7c0-0.9,0-1.9-0.1-2.9c0-1-0.1-1.9-0.2-2.8h5.4l0.6,6.1h-0.9c0.3-1.5,0.8-2.7,1.5-3.7
		c0.7-1,1.5-1.7,2.5-2.2c1-0.5,2.1-0.7,3.3-0.7c0.5,0,1,0,1.3,0.1c0.3,0,0.6,0.1,1,0.2l0,4.9c-0.6-0.2-1-0.4-1.4-0.4
		c-0.4-0.1-0.9-0.1-1.5-0.1c-1.3,0-2.3,0.3-3.2,0.8c-0.9,0.5-1.5,1.3-1.9,2.2c-0.4,0.9-0.6,2-0.6,3.2v11.9H639.8z"/>
	<path class="st1" d="M667.7,325.7c-3.8,0-6.7-1-8.8-3.1c-2.1-2.1-3.2-4.9-3.2-8.5c0-2.3,0.5-4.4,1.4-6.1c0.9-1.7,2.2-3.1,3.8-4.1
		c1.6-1,3.6-1.5,5.7-1.5c2.2,0,4,0.5,5.4,1.4c1.4,0.9,2.5,2.2,3.3,3.9c0.8,1.7,1.1,3.6,1.1,5.8v1.5h-16.3v-2.9h12.4l-0.8,0.6
		c0-2.1-0.4-3.6-1.3-4.7c-0.9-1.1-2.1-1.6-3.8-1.6c-1.8,0-3.2,0.6-4.2,1.9c-1,1.3-1.5,3.1-1.5,5.4v0.6c0,2.4,0.6,4.2,1.8,5.4
		c1.2,1.2,2.9,1.8,5.1,1.8c1.3,0,2.5-0.2,3.6-0.5c1.1-0.3,2.2-0.9,3.2-1.7l1.6,3.7c-1.1,0.9-2.3,1.5-3.8,2
		C670.9,325.5,669.4,325.7,667.7,325.7z"/>
	<path class="st1" d="M689.8,325.7c-1.9,0-3.7-0.5-5.1-1.4c-1.5-0.9-2.6-2.3-3.5-4c-0.8-1.7-1.2-3.8-1.2-6.2c0-2.4,0.4-4.5,1.2-6.2
		c0.8-1.7,2-3.1,3.5-4c1.5-0.9,3.2-1.4,5.1-1.4c1.9,0,3.6,0.5,5,1.4c1.4,0.9,2.4,2.2,2.9,3.7h-0.5l0.5-4.7h5.3
		c-0.1,0.9-0.2,1.8-0.2,2.8c-0.1,0.9-0.1,1.9-0.1,2.8v16.8h-5.5l0-4.6h0.5c-0.5,1.5-1.4,2.8-2.9,3.7
		C693.3,325.3,691.6,325.7,689.8,325.7z M691.4,321.5c1.7,0,3.1-0.6,4.2-1.8c1.1-1.2,1.6-3.1,1.6-5.6c0-2.5-0.5-4.3-1.6-5.5
		c-1.1-1.2-2.5-1.8-4.2-1.8c-1.7,0-3.1,0.6-4.2,1.8c-1.1,1.2-1.6,3.1-1.6,5.5c0,2.5,0.5,4.3,1.6,5.6
		C688.2,320.9,689.6,321.5,691.4,321.5z"/>
	<path class="st1" d="M718.2,325.7c-2.7,0-4.7-0.7-6-2.1c-1.4-1.4-2-3.5-2-6.2v-10.3h-4.3v-4.2h4.3v-5.7l5.5-1.4v7.1h6v4.2h-6v10
		c0,1.5,0.3,2.6,0.9,3.2c0.6,0.6,1.4,0.9,2.4,0.9c0.6,0,1,0,1.4-0.1c0.4-0.1,0.8-0.2,1.2-0.4v4.4c-0.5,0.2-1.1,0.4-1.7,0.5
		C719.4,325.7,718.8,325.7,718.2,325.7z"/>
	<path class="st1" d="M735.3,325.7c-2.3,0-4.3-0.5-6-1.4c-1.7-0.9-3-2.3-3.9-4c-0.9-1.7-1.4-3.8-1.4-6.2c0-2.4,0.5-4.5,1.4-6.2
		c0.9-1.7,2.2-3.1,3.9-4c1.7-0.9,3.7-1.4,6-1.4s4.3,0.5,6,1.4c1.7,0.9,3,2.3,3.9,4c0.9,1.7,1.4,3.8,1.4,6.2c0,2.4-0.5,4.5-1.4,6.2
		c-0.9,1.7-2.2,3.1-3.9,4C739.6,325.3,737.6,325.7,735.3,325.7z M735.3,321.5c1.7,0,3.1-0.6,4.2-1.8c1-1.2,1.6-3.1,1.6-5.6
		c0-2.5-0.5-4.3-1.6-5.5c-1-1.2-2.4-1.8-4.2-1.8s-3.1,0.6-4.2,1.8c-1,1.2-1.6,3.1-1.6,5.5c0,2.5,0.5,4.3,1.6,5.6
		C732.2,320.9,733.6,321.5,735.3,321.5z"/>
	<path class="st1" d="M751.4,325.3v-16.7c0-0.9,0-1.9-0.1-2.9c0-1-0.1-1.9-0.2-2.8h5.4l0.6,6.1h-0.9c0.3-1.5,0.8-2.7,1.5-3.7
		c0.7-1,1.5-1.7,2.5-2.2c1-0.5,2.1-0.7,3.3-0.7c0.5,0,1,0,1.3,0.1c0.3,0,0.6,0.1,1,0.2l0,4.9c-0.6-0.2-1-0.4-1.4-0.4
		c-0.4-0.1-0.9-0.1-1.5-0.1c-1.3,0-2.3,0.3-3.2,0.8c-0.9,0.5-1.5,1.3-1.9,2.2c-0.4,0.9-0.6,2-0.6,3.2v11.9H751.4z"/>
	<path class="st1" d="M776.6,325.7c-1.9,0-3.7-0.2-5.3-0.7c-1.6-0.5-3-1.1-4.1-1.9l1.6-3.7c1.1,0.8,2.4,1.4,3.7,1.8
		c1.4,0.4,2.7,0.6,4.1,0.6c1.5,0,2.6-0.3,3.3-0.8c0.7-0.5,1.1-1.2,1.1-2c0-0.7-0.2-1.2-0.7-1.6c-0.5-0.4-1.2-0.7-2.2-0.9l-4.4-0.8
		c-1.9-0.4-3.3-1.1-4.3-2.1c-1-1-1.5-2.3-1.5-3.9c0-1.4,0.4-2.6,1.1-3.7c0.8-1.1,1.8-1.9,3.2-2.5c1.4-0.6,3-0.9,4.9-0.9
		c1.7,0,3.2,0.2,4.7,0.7c1.5,0.4,2.7,1.1,3.7,2l-1.6,3.6c-0.9-0.7-2-1.3-3.1-1.7c-1.2-0.4-2.3-0.6-3.5-0.6c-1.5,0-2.7,0.3-3.4,0.8
		c-0.7,0.5-1.1,1.2-1.1,2.1c0,0.6,0.2,1.2,0.6,1.6c0.4,0.4,1.1,0.7,2,1l4.4,0.8c2,0.4,3.5,1.1,4.5,2c1,1,1.5,2.3,1.5,3.9
		c0,1.5-0.4,2.7-1.2,3.8c-0.8,1.1-1.9,1.9-3.3,2.4C780.1,325.5,778.5,325.7,776.6,325.7z"/>
</g>
</svg>
