<?xml version="1.0" standalone="no"?>
<!DOCTYPE svg PUBLIC "-//W3C//DTD SVG 20010904//EN"
 "http://www.w3.org/TR/2001/REC-SVG-20010904/DTD/svg10.dtd">
<svg version="1.0" xmlns="http://www.w3.org/2000/svg"
 width="3000.000000pt" height="3000.000000pt" viewBox="0 0 3000.000000 3000.000000"
 preserveAspectRatio="xMidYMid meet">

<g transform="translate(0.000000,3000.000000) scale(0.100000,-0.100000)"
fill="#000000" stroke="none">
<path d="M3050 22298 c119 -74 484 -319 585 -393 324 -236 613 -484 855 -731
246 -252 407 -454 547 -690 39 -65 329 -630 643 -1254 616 -1221 3969 -7923
5080 -10155 373 -748 684 -1368 691 -1378 13 -15 131 169 1129 1758 613 977
1114 1779 1113 1783 -2 9 -3941 8148 -4091 8452 -207 422 -317 746 -374 1095
-19 120 -16 448 5 562 32 176 103 364 188 500 95 151 233 311 369 426 l55 47
-3415 0 -3415 0 35 -22z"/>
<path d="M11070 22316 c0 -2 21 -17 48 -32 68 -40 317 -204 457 -303 547 -383
1026 -823 1323 -1217 81 -109 175 -255 249 -389 124 -224 2667 -5300 5533
-11042 453 -909 827 -1653 830 -1653 5 1 2209 3508 2224 3539 6 15 -450 965
-1997 4162 -1103 2279 -2048 4231 -2101 4337 -437 886 -492 1579 -169 2123 87
147 234 317 382 442 l45 37 -3412 0 c-1877 0 -3412 -2 -3412 -4z"/>
<path d="M19051 22281 c550 -218 1389 -949 2130 -1856 285 -350 654 -869 891
-1255 658 -1073 1060 -2164 1153 -3125 22 -237 13 -215 91 -215 l65 0 16 38
c8 20 102 222 208 447 192 408 254 542 733 1565 693 1482 1134 2365 1500 3003
426 741 773 1195 1058 1386 l76 51 -4009 0 -4008 -1 96 -38z"/>
</g>
</svg>
